<?xml version='1.0' encoding='UTF-8'?>
<svg width="90mm" height="90mm" version="1.1" viewBox="0 0 90 90" xmlns="http://www.w3.org/2000/svg"><path d="M8,8H10V10H8zM10,8H12V10H10zM12,8H14V10H12zM14,8H16V10H14zM16,8H18V10H16zM18,8H20V10H18zM20,8H22V10H20zM32,8H34V10H32zM38,8H40V10H38zM40,8H42V10H40zM42,8H44V10H42zM46,8H48V10H46zM48,8H50V10H48zM50,8H52V10H50zM52,8H54V10H52zM58,8H60V10H58zM60,8H62V10H60zM64,8H66V10H64zM68,8H70V10H68zM70,8H72V10H70zM72,8H74V10H72zM74,8H76V10H74zM76,8H78V10H76zM78,8H80V10H78zM80,8H82V10H80zM8,10H10V12H8zM20,10H22V12H20zM26,10H28V12H26zM28,10H30V12H28zM30,10H32V12H30zM36,10H38V12H36zM38,10H40V12H38zM40,10H42V12H40zM42,10H44V12H42zM48,10H50V12H48zM52,10H54V12H52zM54,10H56V12H54zM56,10H58V12H56zM58,10H60V12H58zM64,10H66V12H64zM68,10H70V12H68zM80,10H82V12H80zM8,12H10V14H8zM12,12H14V14H12zM14,12H16V14H14zM16,12H18V14H16zM20,12H22V14H20zM26,12H28V14H26zM28,12H30V14H28zM34,12H36V14H34zM36,12H38V14H36zM42,12H44V14H42zM44,12H46V14H44zM48,12H50V14H48zM52,12H54V14H52zM58,12H60V14H58zM64,12H66V14H64zM68,12H70V14H68zM72,12H74V14H72zM74,12H76V14H74zM76,12H78V14H76zM80,12H82V14H80zM8,14H10V16H8zM12,14H14V16H12zM14,14H16V16H14zM16,14H18V16H16zM20,14H22V16H20zM26,14H28V16H26zM30,14H32V16H30zM38,14H40V16H38zM44,14H46V16H44zM46,14H48V16H46zM50,14H52V16H50zM54,14H56V16H54zM58,14H60V16H58zM60,14H62V16H60zM68,14H70V16H68zM72,14H74V16H72zM74,14H76V16H74zM76,14H78V16H76zM80,14H82V16H80zM8,16H10V18H8zM12,16H14V18H12zM14,16H16V18H14zM16,16H18V18H16zM20,16H22V18H20zM24,16H26V18H24zM28,16H30V18H28zM30,16H32V18H30zM36,16H38V18H36zM38,16H40V18H38zM40,16H42V18H40zM44,16H46V18H44zM48,16H50V18H48zM50,16H52V18H50zM56,16H58V18H56zM60,16H62V18H60zM62,16H64V18H62zM68,16H70V18H68zM72,16H74V18H72zM74,16H76V18H74zM76,16H78V18H76zM80,16H82V18H80zM8,18H10V20H8zM20,18H22V20H20zM28,18H30V20H28zM30,18H32V20H30zM32,18H34V20H32zM36,18H38V20H36zM40,18H42V20H40zM42,18H44V20H42zM44,18H46V20H44zM48,18H50V20H48zM50,18H52V20H50zM52,18H54V20H52zM54,18H56V20H54zM56,18H58V20H56zM68,18H70V20H68zM80,18H82V20H80zM8,20H10V22H8zM10,20H12V22H10zM12,20H14V22H12zM14,20H16V22H14zM16,20H18V22H16zM18,20H20V22H18zM20,20H22V22H20zM24,20H26V22H24zM28,20H30V22H28zM32,20H34V22H32zM36,20H38V22H36zM40,20H42V22H40zM44,20H46V22H44zM48,20H50V22H48zM52,20H54V22H52zM56,20H58V22H56zM60,20H62V22H60zM64,20H66V22H64zM68,20H70V22H68zM70,20H72V22H70zM72,20H74V22H72zM74,20H76V22H74zM76,20H78V22H76zM78,20H80V22H78zM80,20H82V22H80zM24,22H26V24H24zM30,22H32V24H30zM32,22H34V24H32zM34,22H36V24H34zM40,22H42V24H40zM42,22H44V24H42zM46,22H48V24H46zM50,22H52V24H50zM54,22H56V24H54zM60,22H62V24H60zM62,22H64V24H62zM64,22H66V24H64zM12,24H14V26H12zM14,24H16V26H14zM20,24H22V26H20zM22,24H24V26H22zM24,24H26V26H24zM30,24H32V26H30zM32,24H34V26H32zM36,24H38V26H36zM38,24H40V26H38zM44,24H46V26H44zM46,24H48V26H46zM50,24H52V26H50zM56,24H58V26H56zM58,24H60V26H58zM62,24H64V26H62zM66,24H68V26H66zM68,24H70V26H68zM72,24H74V26H72zM8,26H10V28H8zM10,26H12V28H10zM26,26H28V28H26zM28,26H30V28H28zM30,26H32V28H30zM38,26H40V28H38zM42,26H44V28H42zM44,26H46V28H44zM46,26H48V28H46zM48,26H50V28H48zM52,26H54V28H52zM54,26H56V28H54zM58,26H60V28H58zM64,26H66V28H64zM70,26H72V28H70zM74,26H76V28H74zM76,26H78V28H76zM78,26H80V28H78zM14,28H16V30H14zM20,28H22V30H20zM28,28H30V30H28zM32,28H34V30H32zM34,28H36V30H34zM36,28H38V30H36zM40,28H42V30H40zM42,28H44V30H42zM50,28H52V30H50zM58,28H60V30H58zM64,28H66V30H64zM66,28H68V30H66zM72,28H74V30H72zM74,28H76V30H74zM14,30H16V32H14zM16,30H18V32H16zM18,30H20V32H18zM24,30H26V32H24zM30,30H32V32H30zM42,30H44V32H42zM46,30H48V32H46zM48,30H50V32H48zM50,30H52V32H50zM52,30H54V32H52zM54,30H56V32H54zM58,30H60V32H58zM60,30H62V32H60zM64,30H66V32H64zM74,30H76V32H74zM76,30H78V32H76zM78,30H80V32H78zM80,30H82V32H80zM10,32H12V34H10zM12,32H14V34H12zM14,32H16V34H14zM20,32H22V34H20zM22,32H24V34H22zM24,32H26V34H24zM28,32H30V34H28zM30,32H32V34H30zM34,32H36V34H34zM38,32H40V34H38zM46,32H48V34H46zM48,32H50V34H48zM52,32H54V34H52zM58,32H60V34H58zM60,32H62V34H60zM62,32H64V34H62zM66,32H68V34H66zM68,32H70V34H68zM72,32H74V34H72zM74,32H76V34H74zM76,32H78V34H76zM80,32H82V34H80zM10,34H12V36H10zM12,34H14V36H12zM14,34H16V36H14zM18,34H20V36H18zM22,34H24V36H22zM28,34H30V36H28zM32,34H34V36H32zM36,34H38V36H36zM38,34H40V36H38zM40,34H42V36H40zM42,34H44V36H42zM46,34H48V36H46zM48,34H50V36H48zM52,34H54V36H52zM62,34H64V36H62zM68,34H70V36H68zM70,34H72V36H70zM72,34H74V36H72zM76,34H78V36H76zM78,34H80V36H78zM80,34H82V36H80zM8,36H10V38H8zM14,36H16V38H14zM16,36H18V38H16zM20,36H22V38H20zM22,36H24V38H22zM24,36H26V38H24zM26,36H28V38H26zM32,36H34V38H32zM40,36H42V38H40zM44,36H46V38H44zM58,36H60V38H58zM60,36H62V38H60zM76,36H78V38H76zM12,38H14V40H12zM16,38H18V40H16zM24,38H26V40H24zM26,38H28V40H26zM28,38H30V40H28zM30,38H32V40H30zM34,38H36V40H34zM44,38H46V40H44zM50,38H52V40H50zM64,38H66V40H64zM66,38H68V40H66zM68,38H70V40H68zM70,38H72V40H70zM78,38H80V40H78zM8,40H10V42H8zM10,40H12V42H10zM12,40H14V42H12zM16,40H18V42H16zM18,40H20V42H18zM20,40H22V42H20zM26,40H28V42H26zM28,40H30V42H28zM32,40H34V42H32zM40,40H42V42H40zM58,40H60V42H58zM62,40H64V42H62zM74,40H76V42H74zM76,40H78V42H76zM10,42H12V44H10zM12,42H14V44H12zM16,42H18V44H16zM22,42H24V44H22zM24,42H26V44H24zM34,42H36V44H34zM36,42H38V44H36zM38,42H40V44H38zM40,42H42V44H40zM42,42H44V44H42zM44,42H46V44H44zM48,42H50V44H48zM52,42H54V44H52zM58,42H60V44H58zM62,42H64V44H62zM66,42H68V44H66zM68,42H70V44H68zM74,42H76V44H74zM80,42H82V44H80zM16,44H18V46H16zM20,44H22V46H20zM22,44H24V46H22zM28,44H30V46H28zM30,44H32V46H30zM32,44H34V46H32zM38,44H40V46H38zM44,44H46V46H44zM46,44H48V46H46zM52,44H54V46H52zM56,44H58V46H56zM58,44H60V46H58zM62,44H64V46H62zM66,44H68V46H66zM68,44H70V46H68zM70,44H72V46H70zM74,44H76V46H74zM76,44H78V46H76zM78,44H80V46H78zM80,44H82V46H80zM12,46H14V48H12zM18,46H20V48H18zM22,46H24V48H22zM26,46H28V48H26zM30,46H32V48H30zM34,46H36V48H34zM36,46H38V48H36zM42,46H44V48H42zM48,46H50V48H48zM52,46H54V48H52zM56,46H58V48H56zM62,46H64V48H62zM64,46H66V48H64zM66,46H68V48H66zM70,46H72V48H70zM72,46H74V48H72zM74,46H76V48H74zM12,48H14V50H12zM14,48H16V50H14zM18,48H20V50H18zM20,48H22V50H20zM22,48H24V50H22zM24,48H26V50H24zM26,48H28V50H26zM28,48H30V50H28zM36,48H38V50H36zM40,48H42V50H40zM42,48H44V50H42zM46,48H48V50H46zM54,48H56V50H54zM60,48H62V50H60zM64,48H66V50H64zM66,48H68V50H66zM72,48H74V50H72zM80,48H82V50H80zM10,50H12V52H10zM12,50H14V52H12zM16,50H18V52H16zM22,50H24V52H22zM28,50H30V52H28zM30,50H32V52H30zM34,50H36V52H34zM36,50H38V52H36zM40,50H42V52H40zM44,50H46V52H44zM50,50H52V52H50zM52,50H54V52H52zM58,50H60V52H58zM70,50H72V52H70zM74,50H76V52H74zM10,52H12V54H10zM14,52H16V54H14zM18,52H20V54H18zM20,52H22V54H20zM24,52H26V54H24zM26,52H28V54H26zM28,52H30V54H28zM30,52H32V54H30zM32,52H34V54H32zM38,52H40V54H38zM40,52H42V54H40zM44,52H46V54H44zM48,52H50V54H48zM50,52H52V54H50zM56,52H58V54H56zM58,52H60V54H58zM66,52H68V54H66zM72,52H74V54H72zM74,52H76V54H74zM76,52H78V54H76zM8,54H10V56H8zM10,54H12V56H10zM12,54H14V56H12zM14,54H16V56H14zM24,54H26V56H24zM30,54H32V56H30zM32,54H34V56H32zM38,54H40V56H38zM40,54H42V56H40zM42,54H44V56H42zM44,54H46V56H44zM50,54H52V56H50zM52,54H54V56H52zM54,54H56V56H54zM62,54H64V56H62zM64,54H66V56H64zM66,54H68V56H66zM74,54H76V56H74zM76,54H78V56H76zM78,54H80V56H78zM80,54H82V56H80zM8,56H10V58H8zM12,56H14V58H12zM14,56H16V58H14zM16,56H18V58H16zM18,56H20V58H18zM20,56H22V58H20zM26,56H28V58H26zM28,56H30V58H28zM30,56H32V58H30zM34,56H36V58H34zM38,56H40V58H38zM40,56H42V58H40zM44,56H46V58H44zM50,56H52V58H50zM54,56H56V58H54zM56,56H58V58H56zM60,56H62V58H60zM66,56H68V58H66zM68,56H70V58H68zM70,56H72V58H70zM72,56H74V58H72zM76,56H78V58H76zM78,56H80V58H78zM12,58H14V60H12zM16,58H18V60H16zM18,58H20V60H18zM24,58H26V60H24zM26,58H28V60H26zM30,58H32V60H30zM32,58H34V60H32zM36,58H38V60H36zM38,58H40V60H38zM40,58H42V60H40zM44,58H46V60H44zM46,58H48V60H46zM50,58H52V60H50zM52,58H54V60H52zM54,58H56V60H54zM56,58H58V60H56zM60,58H62V60H60zM62,58H64V60H62zM64,58H66V60H64zM66,58H68V60H66zM68,58H70V60H68zM70,58H72V60H70zM72,58H74V60H72zM74,58H76V60H74zM76,58H78V60H76zM80,58H82V60H80zM10,60H12V62H10zM12,60H14V62H12zM14,60H16V62H14zM16,60H18V62H16zM20,60H22V62H20zM26,60H28V62H26zM30,60H32V62H30zM32,60H34V62H32zM34,60H36V62H34zM36,60H38V62H36zM38,60H40V62H38zM40,60H42V62H40zM44,60H46V62H44zM46,60H48V62H46zM52,60H54V62H52zM54,60H56V62H54zM60,60H62V62H60zM64,60H66V62H64zM72,60H74V62H72zM78,60H80V62H78zM8,62H10V64H8zM12,62H14V64H12zM14,62H16V64H14zM16,62H18V64H16zM24,62H26V64H24zM26,62H28V64H26zM28,62H30V64H28zM32,62H34V64H32zM34,62H36V64H34zM36,62H38V64H36zM40,62H42V64H40zM42,62H44V64H42zM48,62H50V64H48zM50,62H52V64H50zM54,62H56V64H54zM60,62H62V64H60zM62,62H64V64H62zM64,62H66V64H64zM66,62H68V64H66zM78,62H80V64H78zM80,62H82V64H80zM20,64H22V66H20zM22,64H24V66H22zM24,64H26V66H24zM30,64H32V66H30zM34,64H36V66H34zM36,64H38V66H36zM40,64H42V66H40zM42,64H44V66H42zM50,64H52V66H50zM52,64H54V66H52zM58,64H60V66H58zM62,64H64V66H62zM64,64H66V66H64zM66,64H68V66H66zM68,64H70V66H68zM70,64H72V66H70zM72,64H74V66H72zM74,64H76V66H74zM76,64H78V66H76zM24,66H26V68H24zM26,66H28V68H26zM30,66H32V68H30zM32,66H34V68H32zM44,66H46V68H44zM46,66H48V68H46zM48,66H50V68H48zM54,66H56V68H54zM60,66H62V68H60zM64,66H66V68H64zM72,66H74V68H72zM74,66H76V68H74zM76,66H78V68H76zM78,66H80V68H78zM80,66H82V68H80zM8,68H10V70H8zM10,68H12V70H10zM12,68H14V70H12zM14,68H16V70H14zM16,68H18V70H16zM18,68H20V70H18zM20,68H22V70H20zM24,68H26V70H24zM28,68H30V70H28zM30,68H32V70H30zM32,68H34V70H32zM34,68H36V70H34zM38,68H40V70H38zM40,68H42V70H40zM46,68H48V70H46zM48,68H50V70H48zM58,68H60V70H58zM60,68H62V70H60zM64,68H66V70H64zM68,68H70V70H68zM72,68H74V70H72zM74,68H76V70H74zM78,68H80V70H78zM80,68H82V70H80zM8,70H10V72H8zM20,70H22V72H20zM28,70H30V72H28zM32,70H34V72H32zM34,70H36V72H34zM36,70H38V72H36zM38,70H40V72H38zM40,70H42V72H40zM42,70H44V72H42zM46,70H48V72H46zM50,70H52V72H50zM54,70H56V72H54zM56,70H58V72H56zM60,70H62V72H60zM62,70H64V72H62zM64,70H66V72H64zM72,70H74V72H72zM74,70H76V72H74zM80,70H82V72H80zM8,72H10V74H8zM12,72H14V74H12zM14,72H16V74H14zM16,72H18V74H16zM20,72H22V74H20zM30,72H32V74H30zM34,72H36V74H34zM44,72H46V74H44zM46,72H48V74H46zM54,72H56V74H54zM56,72H58V74H56zM60,72H62V74H60zM64,72H66V74H64zM66,72H68V74H66zM68,72H70V74H68zM70,72H72V74H70zM72,72H74V74H72zM74,72H76V74H74zM78,72H80V74H78zM8,74H10V76H8zM12,74H14V76H12zM14,74H16V76H14zM16,74H18V76H16zM20,74H22V76H20zM24,74H26V76H24zM26,74H28V76H26zM28,74H30V76H28zM30,74H32V76H30zM38,74H40V76H38zM40,74H42V76H40zM42,74H44V76H42zM46,74H48V76H46zM50,74H52V76H50zM52,74H54V76H52zM56,74H58V76H56zM58,74H60V76H58zM68,74H70V76H68zM70,74H72V76H70zM72,74H74V76H72zM76,74H78V76H76zM8,76H10V78H8zM12,76H14V78H12zM14,76H16V78H14zM16,76H18V78H16zM20,76H22V78H20zM24,76H26V78H24zM26,76H28V78H26zM28,76H30V78H28zM32,76H34V78H32zM34,76H36V78H34zM50,76H52V78H50zM54,76H56V78H54zM56,76H58V78H56zM58,76H60V78H58zM64,76H66V78H64zM68,76H70V78H68zM70,76H72V78H70zM72,76H74V78H72zM78,76H80V78H78zM8,78H10V80H8zM20,78H22V80H20zM26,78H28V80H26zM28,78H30V80H28zM30,78H32V80H30zM36,78H38V80H36zM38,78H40V80H38zM44,78H46V80H44zM50,78H52V80H50zM58,78H60V80H58zM60,78H62V80H60zM70,78H72V80H70zM74,78H76V80H74zM76,78H78V80H76zM8,80H10V82H8zM10,80H12V82H10zM12,80H14V82H12zM14,80H16V82H14zM16,80H18V82H16zM18,80H20V82H18zM20,80H22V82H20zM30,80H32V82H30zM32,80H34V82H32zM40,80H42V82H40zM44,80H46V82H44zM46,80H48V82H46zM50,80H52V82H50zM56,80H58V82H56zM58,80H60V82H58zM60,80H62V82H60zM68,80H70V82H68zM70,80H72V82H70zM74,80H76V82H74zM76,80H78V82H76zM78,80H80V82H78zM80,80H82V82H80z" id="qr-path" fill="#000000" fill-opacity="1" fill-rule="nonzero" stroke="none"/></svg>